<svg xmlns="http://www.w3.org/2000/svg" viewBox="0 0 272 272" width="272" height="272">
  <rect width="272" height="272" fill="#020420" rx="8"/>
  <circle cx="136" cy="100" r="40" fill="#00cb77" opacity="0.8"/>
  <path d="M136 150c-35 0-65 20-65 45v25c0 8 6 14 14 14h102c8 0 14-6 14-14v-25c0-25-30-45-65-45z" fill="#00cb77" opacity="0.8"/>
  <circle cx="136" cy="100" r="30" fill="none" stroke="#020420" stroke-width="2" opacity="0.3"/>
  <path d="M136 155c-28 0-50 16-50 35v18c0 5 3 8 8 8h84c5 0 8-3 8-8v-18c0-19-22-35-50-35z" fill="none" stroke="#020420" stroke-width="2" opacity="0.3"/>
</svg>
